<?xml version="1.0" standalone="yes"?>
<svg version="1.0" xmlns="http://www.w3.org/2000/svg"
 width="420.000000pt" height="395.000000pt" viewBox="0 0 420.000000 395.000000"
 preserveAspectRatio="xMidYMid meet">
<path style="fill:#ffffff; stroke:none;" d="M0 0L0 395L420 395L420 0L0 0z"/>
<path style="fill:#fde6e5; stroke:none;" d="M282 381C250.92 392.293 224.076 387.793 192 382.414C163.605 377.652 135.358 372.177 107 367.25C87.7787 363.91 57.7615 362.979 44.0586 348C37.7993 341.158 40.8875 332.424 39.561 324C38.141 314.983 33.4522 306.393 29.9892 298C21.4833 277.385 11.2292 256.346 8.28935 234C-2.84697 149.351 39.8214 67.9484 115 27.3087C197.827 -17.4655 309.483 9.08124 370.155 78C390.526 101.14 416.574 133.05 412.891 166C411.22 180.955 392.521 185.493 381 189.333C356.853 197.382 322.319 204.377 314.209 232C309.87 246.777 322.442 266.354 325.196 281C332.363 319.105 318.222 355.968 286 378C289.948 378.796 293.139 375.218 296 372.714C303.589 366.072 310.504 358.48 315.985 350C329.713 328.76 330.325 297.128 324.986 273C320.681 253.54 307.581 236.069 323.329 218.043C337.02 202.372 364.05 196.65 383 190.333C394.524 186.492 405.317 184.232 412.258 173C414.912 168.706 414 162.83 414 158C414 140.659 406.465 126.917 398.138 112C374.674 69.9635 333.515 36.377 289 18.9969C180.913 -23.2036 46.4352 30.3318 13.4275 146C-1.84584 199.522 7.57361 248.95 28.5756 299C32.3304 307.948 37.448 317.308 38.7106 327C39.5803 333.675 37.0369 342.289 41.3179 348C51.7766 361.952 75.9701 362.845 92 365.999C137.116 374.876 182.571 382.483 228 389.561C242.472 391.816 271.563 393.142 282 381z"/>
<path style="fill:#f1413c; stroke:none;" d="M182 7.42438C159.563 10.379 138.491 15.272 118 25.2592C43.0233 61.8024 1.49815 141.35 7.08951 223C8.9113 249.603 19.3781 273.699 29.5756 298C33.3304 306.948 38.448 316.308 39.7106 326C40.6701 333.365 37.976 341.888 43.1481 348C54.9483 361.945 82.7762 363.371 100 366.247C132.383 371.654 164.611 377.982 197 383.414C217.204 386.802 238.436 391.518 259 388.572C309.552 381.33 331.64 328.649 325.711 283C323.251 264.061 308.458 244.699 316.865 226C327.052 203.342 360.531 196.49 382 189.333C393.271 185.576 407.393 182.735 412.258 170C421.696 145.293 398.03 112.508 384.555 94C338.665 30.9707 259.34 -2.76016 182 7.42438z"/>
<path style="fill:#f35954; stroke:none;" d="M271 364C248.044 373.415 228.742 369.013 205 365.08C173.597 359.879 142.382 353.678 111 348.414C98.5681 346.328 86.3149 343.452 74 340.79C69.7059 339.862 62.5547 339.316 59.6034 335.697C56.0321 331.317 58.3592 322.295 57.8295 317C56.911 307.82 52.2049 299.446 48.7994 291C38.5149 265.495 26.9951 240.827 25.0895 213C20.4005 144.527 64.1849 79.0865 122 46.4244C197.176 3.95416 300.059 26.7053 355.718 91C368.483 105.746 379.196 121.422 387.741 139C390.205 144.07 395.578 153.258 394.473 158.999C392.498 169.257 368.501 172.5 360 175.333C334.531 183.823 304.697 194.708 296.208 223C289.813 244.317 300.976 262.777 305.764 283C312.631 312.005 301.981 342.888 277 360C281.941 360.996 286.878 354.727 290.011 351.331C300.109 340.385 306.465 326.704 308.572 312C313.222 279.538 285.876 249.121 299.865 218C310.837 193.591 339.445 183.852 363 176C371.052 173.316 389.312 171.014 394.258 163.891C399.239 156.717 392.382 144.729 389.218 138C351.525 57.8176 262.225 11.7147 175 26.2855C75.8218 42.853 0.1758 150.198 30.4352 249C36.9518 270.278 48.6983 289.823 55.2261 311C57.3028 317.737 53.9972 332.499 58.6034 337.436C61.2699 340.294 67.3602 340.767 71 341.576C81.3157 343.867 91.6227 346.195 102 348.197C142.201 355.952 182.595 362.645 223 369.246C235.366 371.267 262.445 376.947 271 364z"/>
<path style="fill:#000000; stroke:none;" d="M191 25.4244C97.579 37.7266 20.7586 115.241 25.0394 213C26.1963 239.421 36.9307 264.008 47.1497 288C51.1897 297.485 56.7932 307.642 57.8295 318C58.3257 322.96 55.9583 332.529 59.6034 336.436C62.607 339.656 69.8907 340.12 74 341C85.3211 343.425 96.5728 346.174 108 348.08C140.053 353.429 171.931 359.768 204 365.08C218.488 367.48 235.361 372.669 250 370.572C259.497 369.211 266.65 365.958 275 361.498C282.021 357.749 287.844 352.204 292.768 345.961C307.146 327.731 311.046 304.31 305.764 282C300.424 259.443 288.435 240.203 298.865 217C309.68 192.942 337.736 183.088 361 175.333C369.185 172.605 390.931 169.691 394.254 160.985C396.282 155.671 392.519 149.821 390.684 145C384.889 129.779 375.777 115.041 365.86 102.17C326.457 51.0258 256.446 16.806 191 25.4244z"/>
</svg>
