<?xml version="1.0" standalone="yes"?>
<svg version="1.0" xmlns="http://www.w3.org/2000/svg"
 width="390.000000pt" height="365.000000pt" viewBox="0 0 390.000000 365.000000"
 preserveAspectRatio="xMidYMid meet">
<path style="fill:#ffffff; stroke:none;" d="M0 0L0 365L390 365L390 0L0 0z"/>
<path style="fill:#fe2e29; stroke:none;" d="M173 5.42438C75.8441 18.2184 -1.82154 101.079 5.08951 202C6.85358 227.76 16.6213 251.512 26.7191 275C30.7981 284.488 36.3681 294.694 37.7106 305C38.4941 311.014 35.7391 320.966 40.3179 325.697C43.9018 329.4 51.1866 329.969 56 331C67.6549 333.496 79.2364 336.283 91 338.247C123.051 343.599 154.938 349.903 187 355.247C203.407 357.981 221.341 362.958 238 360.572C247.928 359.15 256.422 355.813 265 350.652C294.267 333.041 303.206 295.433 295.764 264C290.9 243.457 279.384 226.091 288.865 205C299.691 180.916 328.864 172.045 352 164.333C361.208 161.264 380.374 159.113 384.258 148.999C386.972 141.93 383.572 134.472 381.061 128C375.091 112.611 366.235 98.2953 356.555 85C316.246 29.6373 241.367 -3.57861 173 5.42438z"/>
<path style="fill:#ff0600; stroke:none;" d="M174 6.42438C150.887 9.46808 128.928 14.5314 108 25.2592C43.4928 58.326 2.86923 127.604 6.03935 200C7.19628 226.421 17.9307 251.008 28.1497 275C32.0727 284.211 37.4087 294.006 38.7106 304C39.4941 310.014 36.7391 319.966 41.3179 324.697C44.7148 328.206 51.437 328.804 56 329.79C67.6469 332.308 79.2401 335.118 91 337.08C123.053 342.429 154.931 348.768 187 354.08C202.988 356.728 220.788 361.894 237 359.572C246.928 358.15 255.422 354.813 264 349.652C292.623 332.429 302.078 295.895 294.764 265C289.733 243.753 278.055 225.824 287.865 204C298.691 179.916 327.864 171.045 351 163.333C360.207 160.264 379.374 158.113 383.258 147.999C385.745 141.52 382.353 134.909 380.061 129C374.091 113.611 365.235 99.2953 355.555 86C315.829 31.4377 241.599 -2.47745 174 6.42438z"/>
<path style="fill:#000000; stroke:none;" d="M176 10.4244C82.579 22.7266 5.75863 100.241 10.0394 198C11.1963 224.421 21.9307 249.008 32.1497 273C36.1897 282.485 41.7932 292.642 42.8295 303C43.3257 307.96 40.9583 317.529 44.6034 321.436C47.607 324.656 54.8907 325.12 59 326C70.3211 328.425 81.5728 331.174 93 333.08C125.053 338.429 156.931 344.768 189 350.08C203.488 352.48 220.361 357.669 235 355.572C244.497 354.211 251.65 350.958 260 346.498C267.021 342.749 272.844 337.204 277.768 330.961C292.146 312.731 296.046 289.31 290.764 267C285.424 244.443 273.435 225.203 283.865 202C294.68 177.942 322.736 168.088 346 160.333C354.185 157.605 375.931 154.691 379.254 145.985C381.282 140.671 377.519 134.821 375.684 130C369.889 114.779 360.777 100.041 350.86 87.1698C311.457 36.0258 241.446 1.806 176 10.4244z"/>
</svg>
