<?xml version="1.0" standalone="no"?>
<!DOCTYPE svg PUBLIC "-//W3C//DTD SVG 20010904//EN"
 "http://www.w3.org/TR/2001/REC-SVG-20010904/DTD/svg10.dtd">
<svg version="1.0" xmlns="http://www.w3.org/2000/svg"
 width="390.000000pt" height="365.000000pt" viewBox="0 0 390.000000 365.000000"
 preserveAspectRatio="xMidYMid meet">

<g transform="translate(0.000000,365.000000) scale(0.100000,-0.100000)"
fill="#f4ec4d" stroke="none">
<path d="M1675 3535 c-330 -46 -640 -183 -900 -396 -81 -66 -242 -228 -279
-279 -259 -359 -371 -664 -391 -1065 -14 -261 25 -416 225 -890 91 -215 100
-248 100 -366 0 -65 4 -100 13 -107 14 -11 316 -81 482 -111 61 -11 196 -35
300 -55 438 -81 949 -166 1040 -173 140 -11 324 61 439 173 149 144 225 321
226 521 0 104 -10 152 -71 340 -85 263 -88 366 -12 523 64 132 188 230 408
322 117 49 442 158 470 158 26 0 75 55 75 84 0 33 -59 178 -111 275 -45 82
-108 190 -121 206 -5 6 -22 28 -38 50 -16 22 -33 45 -38 50 -193 237 -413 414
-677 545 -208 104 -408 165 -635 196 -127 17 -382 16 -505 -1z"/>
</g>
</svg>
