<?xml version="1.0" standalone="no"?>
<!DOCTYPE svg PUBLIC "-//W3C//DTD SVG 20010904//EN"
 "http://www.w3.org/TR/2001/REC-SVG-20010904/DTD/svg10.dtd">
<svg version="1.0" xmlns="http://www.w3.org/2000/svg"
 width="566.000000pt" height="565.000000pt" viewBox="0 0 566.000000 565.000000"
 preserveAspectRatio="xMidYMid meet">

<g transform="translate(0.000000,565.000000) scale(0.100000,-0.100000)"
fill="#dc3545" stroke="none">
<path d="M2585 5629 c-439 -40 -857 -182 -1240 -418 -335 -207 -689 -561 -896
-896 -445 -721 -549 -1580 -288 -2375 101 -304 235 -560 433 -825 116 -155
382 -422 536 -537 412 -309 871 -496 1380 -560 136 -17 524 -17 660 0 509 64
968 251 1380 560 150 112 420 382 532 532 516 686 694 1528 502 2360 -66 287
-188 577 -353 845 -207 335 -561 689 -896 896 -529 327 -1145 474 -1750 418z
m1410 -1813 c144 -30 328 -92 433 -146 130 -65 130 -30 -3 -310 -63 -135 -119
-248 -124 -253 -4 -4 -68 22 -142 57 -286 137 -546 199 -638 151 -47 -24 -56
-83 -19 -130 29 -37 97 -66 296 -124 205 -61 327 -104 412 -145 88 -42 226
-178 264 -259 74 -159 70 -381 -9 -542 -79 -163 -241 -280 -474 -343 -90 -24
-110 -26 -321 -26 -197 0 -238 3 -328 22 -136 30 -316 90 -422 140 -73 35
-227 127 -253 152 -5 4 48 120 117 258 l126 251 74 -53 c159 -114 410 -221
590 -252 175 -30 266 6 266 105 0 74 -65 108 -353 187 -340 94 -452 147 -562
265 -94 103 -128 195 -129 354 0 188 50 314 178 440 119 118 265 186 476 220
132 22 393 13 545 -19z m-2496 -673 c113 -359 208 -653 211 -653 3 0 97 295
209 655 l204 655 345 0 c189 0 342 -4 340 -9 -1 -4 -176 -461 -388 -1015
l-385 -1006 -347 0 -346 0 -10 28 c-5 15 -177 467 -381 1005 -204 537 -371
982 -371 987 0 7 126 9 357 8 l356 -3 206 -652z m3536 -814 c147 -37 230 -214
181 -384 -23 -77 -97 -153 -175 -178 -161 -51 -328 19 -381 161 -27 72 -25
195 5 257 64 131 204 186 370 144z"/>
</g>
</svg>
