<?xml version="1.0" encoding="iso-8859-1"?>
<!-- Generator: Adobe Illustrator 19.0.0, SVG Export Plug-In . SVG Version: 6.00 Build 0)  -->
<svg version="1.1" id="Capa_1" xmlns="http://www.w3.org/2000/svg" xmlns:xlink="http://www.w3.org/1999/xlink" x="0px" y="0px"
	 viewBox="0 0 512 512" style="enable-background:new 0 0 512 512;" xml:space="preserve">
<g>
	<g>
		<path d="M332.04,195.952c-2.58-3.241-7.299-3.777-10.539-1.197c-3.241,2.579-3.777,7.298-1.198,10.539
			C331.881,219.84,338,237.374,338,256c0,44.939-36.561,81.5-81.5,81.5c-44.939,0-81.5-36.561-81.5-81.5
			c0-44.939,36.561-81.5,81.5-81.5c15.376,0,30.354,4.308,43.315,12.457c3.507,2.203,8.137,1.149,10.341-2.357
			c2.205-3.507,1.149-8.137-2.357-10.342c-15.355-9.654-33.095-14.758-51.3-14.758c-53.21,0-96.5,43.29-96.5,96.5
			c0,53.21,43.29,96.5,96.5,96.5c53.21,0,96.501-43.29,96.501-96.5C353,233.945,345.752,213.182,332.04,195.952z"/>
	</g>
</g>
<g>
	<g>
		<path d="M256.5,215.5c-22.332,0-40.5,18.168-40.5,40.5c0,22.332,18.168,40.5,40.5,40.5c22.332,0,40.5-18.168,40.5-40.5
			C297,233.668,278.832,215.5,256.5,215.5z M256.5,281.5c-14.061,0-25.5-11.439-25.5-25.5c0-14.061,11.439-25.5,25.5-25.5
			c14.061,0,25.5,11.439,25.5,25.5C282,270.061,270.561,281.5,256.5,281.5z"/>
	</g>
</g>
<g>
	<g>
		<circle cx="256.5" cy="198" r="10"/>
	</g>
</g>
<g>
	<g>
		<circle cx="297.51" cy="214.99" r="10"/>
	</g>
</g>
<g>
	<g>
		<circle cx="314.5" cy="256" r="10"/>
	</g>
</g>
<g>
	<g>
		<circle cx="297.51" cy="297.01" r="10"/>
	</g>
</g>
<g>
	<g>
		<circle cx="256.5" cy="314" r="10"/>
	</g>
</g>
<g>
	<g>
		<circle cx="215.49" cy="297.01" r="10"/>
	</g>
</g>
<g>
	<g>
		<circle cx="198.5" cy="256" r="10"/>
	</g>
</g>
<g>
	<g>
		<circle cx="215.49" cy="214.99" r="10"/>
	</g>
</g>
<g>
	<g>
		<path d="M494.078,224.5H464v-25c0-12.131-9.869-22-22-22c-8.125,0-15.23,4.431-19.04,11h-31.53
			c-15.996,0-31.218-6.583-41.764-18.063c-23.902-26.017-57.86-40.938-93.166-40.938s-69.264,14.921-93.166,40.938
			c-10.546,11.479-25.768,18.063-41.764,18.063H90.04c-3.81-6.569-10.915-11-19.04-11c-12.131,0-22,9.869-22,22v25H17.922
			C8.04,224.5,0,232.54,0,242.422v29.156C0,281.46,8.04,289.5,17.922,289.5H49v25c0,12.131,9.869,22,22,22
			c8.925,0,16.62-5.345,20.067-13h30.503c15.996,0,31.218,6.583,41.764,18.063c23.902,26.017,57.86,40.938,93.166,40.938
			c35.306,0,69.264-14.921,93.166-40.938c10.545-11.479,25.768-18.063,41.764-18.063h30.503c3.447,7.655,11.142,13,20.067,13
			c12.131,0,22-9.869,22-22v-25h30.078c9.882,0,17.922-8.04,17.922-17.922v-29.156C512,232.54,503.96,224.5,494.078,224.5z
			 M49,274.5H17.922c-1.611,0-2.922-1.311-2.922-2.922v-29.156c0-1.611,1.311-2.922,2.922-2.922H49V274.5z M78,314.5
			c0,3.859-3.14,7-7,7s-7-3.141-7-7v-115c0-3.859,3.14-7,7-7s7,3.141,7,7V314.5z M449,314.5c0,3.859-3.14,7-7,7s-7-3.141-7-7v-21
			c0-4.143-3.358-7.5-7.5-7.5c-4.142,0-7.5,3.357-7.5,7.5v15h-28.57c-20.184,0-39.432,8.352-52.81,22.914
			c-21.069,22.934-51.001,36.086-82.12,36.086c-31.119,0-61.051-13.152-82.12-36.086c-13.377-14.563-32.626-22.914-52.81-22.914H93
			v-105h28.57c20.183,0,39.431-8.352,52.81-22.914c21.069-22.934,51.001-36.086,82.12-36.086c31.119,0,61.051,13.152,82.12,36.086
			c13.378,14.563,32.626,22.914,52.81,22.914H420v60c0,4.143,3.358,7.5,7.5,7.5c4.142,0,7.5-3.357,7.5-7.5v-64c0-3.859,3.14-7,7-7
			s7,3.141,7,7V314.5z M497,271.578c0,1.611-1.311,2.922-2.922,2.922H464v-35h30.078c1.611,0,2.922,1.311,2.922,2.922V271.578z"/>
	</g>
</g>
<g>
</g>
<g>
</g>
<g>
</g>
<g>
</g>
<g>
</g>
<g>
</g>
<g>
</g>
<g>
</g>
<g>
</g>
<g>
</g>
<g>
</g>
<g>
</g>
<g>
</g>
<g>
</g>
<g>
</g>
</svg>
